<mxfile host="app.diagrams.net" modified="2023-08-09T01:25:19.729Z" agent="Mozilla/5.0 (Windows NT 10.0; Win64; x64) AppleWebKit/537.36 (KHTML, like Gecko) Chrome/114.0.0.0 Safari/537.36 Edg/114.0.1823.79" etag="GyV8bG7SzMrJ1YwWwFuM" version="21.6.6" type="github">
  <diagram name="第 1 页" id="C3QFAdzN7qDSB8nUzb96">
    <mxGraphModel dx="794" dy="484" grid="1" gridSize="10" guides="1" tooltips="1" connect="1" arrows="1" fold="1" page="1" pageScale="1" pageWidth="827" pageHeight="1169" math="0" shadow="0">
      <root>
        <mxCell id="0" />
        <mxCell id="1" parent="0" />
        <mxCell id="yoXNdybyR26eVThOSt3A-1" value="" style="shape=parallelogram;perimeter=parallelogramPerimeter;whiteSpace=wrap;html=1;fixedSize=1;" parent="1" vertex="1">
          <mxGeometry x="294" y="220" width="120" height="60" as="geometry" />
        </mxCell>
        <mxCell id="6D1OJspf6Wa5nEiAEzhR-1" value="" style="shape=document;whiteSpace=wrap;html=1;boundedLbl=1;" vertex="1" parent="1">
          <mxGeometry x="190" y="130" width="120" height="80" as="geometry" />
        </mxCell>
      </root>
    </mxGraphModel>
  </diagram>
</mxfile>
